<svg width="32" height="32" viewBox="0 0 32 32" fill="none" xmlns="http://www.w3.org/2000/svg">
<circle cx="16" cy="16" r="16" fill="#3772FF"/>
<path d="M11.0971 20.113L11.8778 18.031C11.9797 17.7595 12.1385 17.5128 12.3436 17.3078L12.3607 17.2906C12.4599 17.1914 12.6207 17.1914 12.7199 17.2906L14.9004 19.4711C14.9996 19.5703 14.9996 19.7311 14.9004 19.8303L14.8832 19.8474C14.6782 20.0525 14.4315 20.2113 14.16 20.3132L12.078 21.0939C11.4655 21.3236 10.8674 20.7255 11.0971 20.113Z" fill="white"/>
<path d="M15.6623 18.7092C15.7615 18.8084 15.9223 18.8084 16.0215 18.7092L18.9639 15.7668C19.0631 15.6676 19.0631 15.5068 18.9639 15.4076L16.7834 13.2271C16.6842 13.1279 16.5234 13.1279 16.4242 13.2271L13.4818 16.1695C13.3826 16.2687 13.3826 16.4295 13.4818 16.5287L15.6623 18.7092Z" fill="white"/>
<path d="M17.5451 12.1061C17.4459 12.2053 17.4459 12.3661 17.5451 12.4653L19.7256 14.6458C19.8248 14.745 19.9856 14.745 20.0848 14.6458L20.6055 14.1251C21.2005 13.53 21.2005 12.5652 20.6055 11.9701L20.2208 11.5855C19.6257 10.9904 18.6609 10.9904 18.0658 11.5855L17.5451 12.1061Z" fill="white"/>
</svg>
