<svg width="36" height="36" viewBox="0 0 36 36" fill="none" xmlns="http://www.w3.org/2000/svg">
<rect opacity="0.6" x="2" y="2" width="32" height="32" rx="6" fill="#E6E8EC"/>
<path d="M10.5 11.3333C9.11929 11.3333 8 12.4526 8 13.8333V14.25C8 14.4801 8.18748 14.6694 8.41584 14.641C9.9243 14.4533 11.1199 13.2576 11.3076 11.7492C11.3361 11.5208 11.1468 11.3333 10.9167 11.3333H10.5Z" fill="#45B26B"/>
<path fill-rule="evenodd" clip-rule="evenodd" d="M13.4167 11.3333C13.1865 11.3333 13.0018 11.5205 12.9829 11.7499C12.7826 14.1791 10.8457 16.1159 8.41654 16.3162C8.1872 16.3352 8 16.5199 8 16.75V19.25C8 19.4801 8.1872 19.6649 8.41654 19.6838C10.8457 19.8841 12.7826 21.821 12.9829 24.2501C13.0018 24.4795 13.1865 24.6667 13.4167 24.6667H22.5833C22.8135 24.6667 22.9982 24.4795 23.0171 24.2501C23.2174 21.821 25.1543 19.8841 27.5835 19.6838C27.8128 19.6649 28 19.4801 28 19.25V16.75C28 16.5199 27.8128 16.3352 27.5835 16.3162C25.1543 16.1159 23.2174 14.1791 23.0171 11.7499C22.9982 11.5205 22.8135 11.3333 22.5833 11.3333H13.4167ZM18 20.5C19.3807 20.5 20.5 19.3807 20.5 18C20.5 16.6193 19.3807 15.5 18 15.5C16.6193 15.5 15.5 16.6193 15.5 18C15.5 19.3807 16.6193 20.5 18 20.5Z" fill="#45B26B"/>
<path d="M28 13.8333V14.25C28 14.4801 27.8125 14.6694 27.5842 14.641C26.0757 14.4533 24.8801 13.2576 24.6924 11.7492C24.6639 11.5208 24.8532 11.3333 25.0833 11.3333H25.5C26.8807 11.3333 28 12.4526 28 13.8333Z" fill="#45B26B"/>
<path d="M28 21.75C28 21.5199 27.8125 21.3306 27.5842 21.359C26.0757 21.5467 24.8801 22.7424 24.6924 24.2508C24.6639 24.4792 24.8532 24.6667 25.0833 24.6667H25.5C26.8807 24.6667 28 23.5474 28 22.1667V21.75Z" fill="#45B26B"/>
<path d="M8 22.1667V21.75C8 21.5199 8.18748 21.3306 8.41584 21.359C9.9243 21.5467 11.1199 22.7424 11.3076 24.2508C11.3361 24.4792 11.1468 24.6667 10.9167 24.6667H10.5C9.11929 24.6667 8 23.5474 8 22.1667Z" fill="#45B26B"/>
</svg>
