<svg width="32" height="32" viewBox="0 0 32 32" fill="none" xmlns="http://www.w3.org/2000/svg">
<rect opacity="0.6" width="32" height="32" rx="8" fill="#E6E8EC"/>
<path d="M7.66663 14.3333C7.66663 12.9526 8.78591 11.8333 10.1666 11.8333H21.8333C23.214 11.8333 24.3333 12.9526 24.3333 14.3333V21.8333C24.3333 23.2141 23.214 24.3333 21.8333 24.3333H10.1666C8.78591 24.3333 7.66663 23.2141 7.66663 21.8333V14.3333Z" fill="#3772FF"/>
<path fill-rule="evenodd" clip-rule="evenodd" d="M13.5 9.33332C13.0398 9.33332 12.6667 9.70642 12.6667 10.1667V12.6667C12.6667 13.1269 12.2936 13.5 11.8333 13.5C11.3731 13.5 11 13.1269 11 12.6667V10.1667C11 8.78594 12.1193 7.66666 13.5 7.66666H18.5C19.8807 7.66666 21 8.78594 21 10.1667V12.6667C21 13.1269 20.6269 13.5 20.1667 13.5C19.7064 13.5 19.3333 13.1269 19.3333 12.6667V10.1667C19.3333 9.70642 18.9602 9.33332 18.5 9.33332H13.5Z" fill="#3772FF"/>
</svg>
