<svg width="38" height="38" viewBox="0 0 38 38" fill="none" xmlns="http://www.w3.org/2000/svg">
<rect opacity="0.6" x="2" y="4" width="32" height="32" rx="6" fill="#E6E8EC"/>
<path d="M8.83337 15C8.83337 13.6193 9.95266 12.5 11.3334 12.5H24.6667C26.0474 12.5 27.1667 13.6193 27.1667 15C27.1667 15.4602 26.7936 15.8333 26.3334 15.8333H23C20.6989 15.8333 18.8334 17.6988 18.8334 20C18.8334 22.3012 20.6989 24.1667 23 24.1667H26.3334C26.7936 24.1667 27.1667 24.5398 27.1667 25C27.1667 26.3807 26.0474 27.5 24.6667 27.5H11.3334C9.95266 27.5 8.83337 26.3807 8.83337 25V15Z" fill="#3772FF"/>
<path fill-rule="evenodd" clip-rule="evenodd" d="M23 17.5H26.3333C26.7936 17.5 27.1667 17.8731 27.1667 18.3333V21.6667C27.1667 22.1269 26.7936 22.5 26.3333 22.5H23C21.6193 22.5 20.5 21.3807 20.5 20C20.5 18.6193 21.6193 17.5 23 17.5ZM23 20.8333C23.4602 20.8333 23.8333 20.4602 23.8333 20C23.8333 19.5398 23.4602 19.1667 23 19.1667C22.5398 19.1667 22.1667 19.5398 22.1667 20C22.1667 20.4602 22.5398 20.8333 23 20.8333Z" fill="#3772FF"/>
<circle cx="32" cy="6" r="6" fill="#EF466F"/>
<path fill-rule="evenodd" clip-rule="evenodd" d="M32.75 3.75C32.75 3.33579 32.4142 3 32 3C31.5858 3 31.25 3.33579 31.25 3.75V5.25L29.75 5.25C29.3358 5.25 29 5.58579 29 6C29 6.41421 29.3358 6.75 29.75 6.75L31.25 6.75V8.25C31.25 8.66421 31.5858 9 32 9C32.4142 9 32.75 8.66421 32.75 8.25V6.75L34.25 6.75C34.6642 6.75 35 6.41421 35 6C35 5.58579 34.6642 5.25 34.25 5.25L32.75 5.25V3.75Z" fill="white"/>
</svg>
