<svg width="42" height="42" viewBox="0 0 42 42" fill="none" xmlns="http://www.w3.org/2000/svg">
<circle cx="21" cy="21" r="21" fill="#3772FF"/>
<path fill-rule="evenodd" clip-rule="evenodd" d="M31.0743 27.5031C31.1712 27.5968 31.2303 27.7223 31.2404 27.8529L31.4979 30.6294C31.5246 30.9372 31.2981 31.2113 30.9872 31.2448L28.6863 31.4973C28.6651 31.4991 28.6439 31.5 28.6231 31.5C28.4787 31.5 28.3417 31.4469 28.2319 31.3482C28.1129 31.2359 28.0428 31.0777 28.0516 30.9133L28.1019 29.4303L26.6014 29.4807C26.421 29.4861 26.2877 29.4262 26.1733 29.3148C26.0626 29.2034 26.0017 29.0507 26.0064 28.894L26.0604 27.4112L24.5561 27.462C24.3983 27.4683 24.2428 27.4078 24.1321 27.2963C24.0173 27.1849 23.9601 27.0325 23.9647 26.8759L24.0136 25.3915L22.5149 25.4435C22.3521 25.4487 22.2012 25.3895 22.0868 25.2779L19.3367 22.5588C18.5589 22.8846 17.7208 23.0578 16.8522 23.0578C15.1543 23.0578 13.5609 22.4038 12.3594 21.2164C9.87989 18.7685 9.88041 14.7865 12.3597 12.3384C13.5614 11.1535 15.1542 10.5 16.853 10.5C18.551 10.5 20.1466 11.1533 21.3463 12.3375C22.5444 13.524 23.2063 15.1015 23.2063 16.7781C23.2063 17.636 23.0324 18.4661 22.7031 19.2326L31.0743 27.5031ZM13.531 16.02C14.2362 16.7175 15.3788 16.7175 16.0855 16.02C16.7904 15.3227 16.7908 14.1934 16.0855 13.4964C15.3784 12.7989 14.2362 12.7996 13.531 13.4966C12.8247 14.1937 12.8247 15.3223 13.531 16.02Z" fill="white"/>
</svg>
