<svg width="24" height="24" viewBox="0 0 24 24" fill="none" xmlns="http://www.w3.org/2000/svg">
<path fill-rule="evenodd" clip-rule="evenodd" d="M13.7906 18.8523C13.6732 20.4628 12.4667 21.7101 10.859 21.8611C10.0219 21.9398 9.04098 22 7.99984 22C6.95871 22 5.97779 21.9398 5.14069 21.8611C3.53297 21.7101 2.3265 20.4628 2.20908 18.8523C2.09905 17.3432 1.99984 15.118 1.99984 12C1.99984 8.882 2.09905 6.65683 2.20908 5.14773C2.3265 3.5372 3.53297 2.2899 5.14069 2.13886C5.97779 2.06022 6.95871 2 7.99984 2C9.04098 2 10.0219 2.06022 10.859 2.13886C12.4667 2.2899 13.6732 3.5372 13.7906 5.14773C13.8885 6.49027 13.9778 8.39954 13.9963 11H8.99988C8.4476 11 7.99988 11.4477 7.99988 12C7.99988 12.5523 8.4476 13 8.99988 13H13.9963C13.9778 15.6005 13.8885 17.5097 13.7906 18.8523Z" fill="#777E91"/>
<path fill-rule="evenodd" clip-rule="evenodd" d="M16.7929 14.7929C16.4024 15.1834 16.4024 15.8166 16.7929 16.2071C17.1834 16.5976 17.8166 16.5976 18.2071 16.2071L21.7071 12.7071C22.0976 12.3166 22.0976 11.6834 21.7071 11.2929L18.2071 7.79289C17.8166 7.40237 17.1834 7.40237 16.7929 7.79289C16.4024 8.18342 16.4024 8.81658 16.7929 9.20711L18.5858 11H14V13L18.5858 13L16.7929 14.7929Z" fill="#777E91"/>
</svg>
