<svg width="32" height="32" viewBox="0 0 32 32" fill="none" xmlns="http://www.w3.org/2000/svg">
<rect x="12.5" y="0.5" width="17" height="27" rx="3.5" fill="white" stroke="#23262F"/>
<rect x="2" y="4" width="19" height="28" rx="4" fill="#3772FF"/>
<g clip-path="url(#clip0_57_1926)">
<path d="M15.0235 19.7412C13.4041 19.1573 12.8867 18.6646 12.8867 17.6098C12.8867 17.4935 12.9035 17.4057 12.932 17.3325C13.0591 17.0066 13.4209 16.9704 13.5981 16.0239C13.6883 15.5428 14.125 16.0161 14.2085 14.918C14.2085 14.5516 14.0184 14.1189 14.072 13.7564C14.0977 13.5832 14.1225 13.3957 14.1387 13.2255C14.1976 12.6045 13.7761 11 11.5285 11C11.5188 11 11.5097 11.0005 11.5002 11.0007C11.4906 11.0005 11.4815 11 11.4717 11C9.22412 11 8.80273 12.6045 8.86155 13.2255C8.87775 13.3957 8.90254 13.5832 8.92818 13.7564C8.98181 14.1189 8.7918 14.5516 8.7918 14.918C8.8754 16.0161 9.31209 15.5428 9.40217 16.0239C9.57937 16.9704 9.94127 17.0066 10.0683 17.3325C10.0968 17.4057 10.1136 17.4935 10.1136 17.6098C10.1136 18.6646 9.59607 19.1573 7.97671 19.7412C6.35238 20.327 5.62183 20.9243 5.62183 21.3317C5.62183 22.8054 6.8165 24 8.2902 24H11.4961H11.5042H14.7101C16.1838 24 17.3785 22.8054 17.3785 21.3317C17.3785 20.9243 16.648 20.327 15.0235 19.7412Z" fill="white"/>
</g>
<defs>
<clipPath id="clip0_57_1926">
<rect width="13" height="13" fill="white" transform="translate(5 11)"/>
</clipPath>
</defs>
</svg>
