<svg width="32" height="32" viewBox="0 0 32 32" fill="none" xmlns="http://www.w3.org/2000/svg">
<rect x="15.1667" y="0.5" width="16.3333" height="27" rx="3.5" fill="white" stroke="#23262F"/>
<rect x="7.83325" y="2.5" width="16.3333" height="27" rx="3.5" fill="white" stroke="#23262F"/>
<rect y="4" width="17.3333" height="28" rx="4" fill="#3772FF"/>
<g clip-path="url(#clip0_57_1520)">
<path d="M11.9192 20.0688C10.4244 19.5299 9.94679 19.075 9.94679 18.1014C9.94679 17.994 9.96224 17.913 9.98861 17.8453C10.1059 17.5446 10.4399 17.5111 10.6034 16.6374C10.6867 16.1933 11.0898 16.6302 11.1669 15.6166C11.1669 15.2784 10.9914 14.879 11.0409 14.5444C11.0646 14.3845 11.0875 14.2114 11.1024 14.0544C11.1568 13.4811 10.7677 12 8.69306 12C8.6841 12 8.67564 12.0005 8.66689 12.0006C8.65806 12.0005 8.64962 12 8.64057 12C6.56592 12 6.17695 13.4811 6.23124 14.0544C6.24619 14.2114 6.26908 14.3845 6.29274 14.5444C6.34224 14.879 6.16685 15.2784 6.16685 15.6166C6.24402 16.6302 6.64712 16.1933 6.73027 16.6374C6.89384 17.5111 7.2279 17.5446 7.34517 17.8453C7.37148 17.913 7.38694 17.994 7.38694 18.1014C7.38694 19.075 6.90925 19.5299 5.41446 20.0688C3.91508 20.6095 3.24072 21.1609 3.24072 21.5369C3.24072 22.8973 4.3435 24 5.70383 24H8.66313H8.6706H11.6299C12.9902 24 14.093 22.8973 14.093 21.5369C14.093 21.1609 13.4188 20.6095 11.9192 20.0688Z" fill="white"/>
</g>
<defs>
<clipPath id="clip0_57_1520">
<rect width="12" height="12" fill="white" transform="translate(2.66675 12)"/>
</clipPath>
</defs>
</svg>
