<svg width="40" height="40" viewBox="0 0 40 40" fill="none" xmlns="http://www.w3.org/2000/svg">
<circle cx="20" cy="20" r="20" fill="#3772FF"/>
<path fill-rule="evenodd" clip-rule="evenodd" d="M20.4999 26.5C24.8981 26.5 27.9146 23.7365 29.5493 21.6823C30.5783 20.3892 30.5783 18.6108 29.5493 17.3177C27.9146 15.2635 24.8981 12.5 20.4999 12.5C16.1017 12.5 13.0852 15.2635 11.4504 17.3177C10.4215 18.6108 10.4215 20.3892 11.4504 21.6823C13.0852 23.7365 16.1017 26.5 20.4999 26.5ZM20.4999 23C22.4329 23 23.9999 21.433 23.9999 19.5C23.9999 17.567 22.4329 16 20.4999 16C18.5669 16 16.9999 17.567 16.9999 19.5C16.9999 21.433 18.5669 23 20.4999 23Z" fill="white"/>
<path fill-rule="evenodd" clip-rule="evenodd" d="M18.7515 19.4259C18.7505 19.4504 18.75 19.4752 18.75 19.5C18.75 19.9438 18.9152 20.3491 19.1875 20.6575C19.3874 20.884 19.645 21.0584 19.9373 21.1576C20.1139 21.2175 20.3031 21.25 20.5 21.25C21.4665 21.25 22.25 20.4665 22.25 19.5C22.25 19.3031 22.2175 19.1139 22.1576 18.9373C22.0584 18.645 21.884 18.3874 21.6575 18.1875C21.3491 17.9152 20.9438 17.75 20.5 17.75C20.4752 17.75 20.4504 17.7505 20.4259 17.7515C20.4739 17.8879 20.5 18.0347 20.5 18.1875C20.5 18.3019 20.4854 18.4129 20.4578 18.5188C20.3386 18.9774 19.9774 19.3386 19.5188 19.4578C19.4129 19.4854 19.3019 19.5 19.1875 19.5C19.0347 19.5 18.8879 19.4739 18.7515 19.4259Z" fill="white"/>
</svg>
