<svg width="42" height="42" viewBox="0 0 42 42" fill="none" xmlns="http://www.w3.org/2000/svg">
<g clip-path="url(#clip0_2_4017)">
<circle cx="21" cy="21.0256" r="21" fill="#3772FF"/>
<path d="M11.8289 28.6865L16.9018 9.75434L23.9067 11.6313C25.4212 12.0371 26.6067 12.6253 27.4631 13.3959C28.3195 14.1665 28.8728 15.0587 29.1229 16.0727C29.373 17.0866 29.3507 18.1435 29.056 19.2434C28.7757 20.2892 28.2829 21.191 27.5773 21.9489C26.8766 22.6888 25.958 23.1963 24.8214 23.4715C23.6896 23.7287 22.3484 23.6495 20.7977 23.234L17.2547 22.2847L15.2908 29.6141L11.8289 28.6865ZM18.0084 19.4719L21.335 20.3633C22.5431 20.6869 23.4786 20.6574 24.1416 20.2746C24.8275 19.8786 25.2936 19.2209 25.54 18.3013C25.7912 17.3637 25.7164 16.561 25.3156 15.8932C24.9377 15.2122 24.1447 14.7098 22.9366 14.3861L19.61 13.4947L18.0084 19.4719Z" fill="white"/>
</g>
<defs>
<clipPath id="clip0_2_4017">
<rect width="42" height="42" fill="white"/>
</clipPath>
</defs>
</svg>
