<svg width="41" height="40" viewBox="0 0 41 40" fill="none" xmlns="http://www.w3.org/2000/svg">
<circle cx="20.6667" cy="20" r="20" fill="#3772FF"/>
<path d="M13.1667 12.5C12.2462 12.5 11.5 13.2462 11.5 14.1667V19.1667C11.5 20.0871 12.2462 20.8333 13.1667 20.8333C13.6269 20.8333 14 20.4602 14 20V17.5C14 16.5795 14.7462 15.8333 15.6667 15.8333H25.6667C26.5871 15.8333 27.3333 16.5795 27.3333 17.5V20C27.3333 20.4602 27.7064 20.8333 28.1667 20.8333C29.0871 20.8333 29.8333 20.0871 29.8333 19.1667V14.1667C29.8333 13.2462 29.0871 12.5 28.1667 12.5H13.1667Z" fill="white"/>
<path d="M20.6667 17.9167C20.6667 17.6865 20.4802 17.5 20.2501 17.5H16.5001C16.0398 17.5 15.6667 17.8731 15.6667 18.3333V25C15.6667 26.3807 16.786 27.5 18.1667 27.5H20.2501C20.4802 27.5 20.6667 27.3135 20.6667 27.0833V17.9167Z" fill="white"/>
<path d="M22.3334 27.0833C22.3334 27.3135 22.52 27.5 22.7501 27.5H23.1667C24.5475 27.5 25.6667 26.3807 25.6667 25V18.3333C25.6667 17.8731 25.2937 17.5 24.8334 17.5H22.7501C22.52 17.5 22.3334 17.6865 22.3334 17.9167V27.0833Z" fill="white"/>
</svg>
