<svg width="41" height="40" viewBox="0 0 41 40" fill="none" xmlns="http://www.w3.org/2000/svg">
<circle cx="20.3333" cy="20" r="20" fill="#3772FF"/>
<path fill-rule="evenodd" clip-rule="evenodd" d="M14.4998 15C14.0396 15 13.6665 15.3731 13.6665 15.8333V25.8333C13.6665 27.214 14.7858 28.3333 16.1665 28.3333H24.4998C25.8805 28.3333 26.9998 27.214 26.9998 25.8333V15.8333C26.9998 15.3731 26.6267 15 26.1665 15H14.4998ZM19.7439 17.7441C20.0694 17.4186 20.597 17.4186 20.9224 17.7441L23.4224 20.2441C23.7479 20.5695 23.7479 21.0972 23.4224 21.4226C23.097 21.748 22.5694 21.748 22.2439 21.4226L21.1665 20.3452V25C21.1665 25.4602 20.7934 25.8333 20.3332 25.8333C19.8729 25.8333 19.4998 25.4602 19.4998 25V20.3452L18.4224 21.4226C18.097 21.748 17.5694 21.748 17.2439 21.4226C16.9185 21.0972 16.9185 20.5695 17.2439 20.2441L19.7439 17.7441Z" fill="white"/>
<path d="M12 12.5C12 12.0398 12.3731 11.6667 12.8333 11.6667H27.8333C28.2936 11.6667 28.6667 12.0398 28.6667 12.5C28.6667 12.9602 28.2936 13.3333 27.8333 13.3333H12.8333C12.3731 13.3333 12 12.9602 12 12.5Z" fill="white"/>
</svg>
