<svg width="80" height="80" viewBox="0 0 80 80" fill="none" xmlns="http://www.w3.org/2000/svg">
<path d="M40 80C62.0914 80 80 62.0914 80 40C80 17.9086 62.0914 0 40 0C17.9086 0 0 17.9086 0 40C0 62.0914 17.9086 80 40 80Z" fill="#039BE5"/>
<path d="M18.3035 39.1333L56.8701 24.2633C58.6601 23.6167 60.2235 24.7 59.6435 27.4067L59.6468 27.4033L53.0801 58.34C52.5935 60.5333 51.2901 61.0667 49.4668 60.0333L39.4668 52.6633L34.6435 57.31C34.1101 57.8433 33.6601 58.2933 32.6268 58.2933L33.3368 48.1167L51.8701 31.3733C52.6768 30.6633 51.6901 30.2633 50.6268 30.97L27.7235 45.39L17.8501 42.31C15.7068 41.63 15.6601 40.1667 18.3035 39.1333Z" fill="white"/>
</svg>
