<svg width="42" height="42" viewBox="0 0 42 42" fill="none" xmlns="http://www.w3.org/2000/svg">
<path d="M30.313 4.56709C34.0613 5.06213 36.9379 7.93873 37.4329 11.687C37.7732 14.2639 38.0625 17.4873 38.0625 21C38.0625 24.5127 37.7732 27.7361 37.4329 30.313C36.9379 34.0613 34.0613 36.9379 30.313 37.4329C27.7361 37.7732 24.5127 38.0625 21 38.0625C17.4873 38.0625 14.2639 37.7732 11.687 37.4329C7.93873 36.9379 5.06213 34.0613 4.56709 30.313C4.22677 27.7361 3.9375 24.5127 3.9375 21C3.9375 17.4873 4.22677 14.2639 4.56709 11.687C5.06213 7.93873 7.93873 5.06213 11.687 4.56709C14.2639 4.22677 17.4873 3.9375 21 3.9375C24.5127 3.9375 27.7361 4.22677 30.313 4.56709Z" fill="#B1B5C4"/>
<path d="M15.6585 30.1875C15.9923 30.1875 16.263 29.9147 16.263 29.5781V21.2149C16.263 19.9784 17.2604 18.9718 18.4883 18.9718H25.164V21.0354C25.164 21.2718 25.2997 21.487 25.5121 21.5873C25.7246 21.6876 25.9754 21.655 26.1556 21.5036L31.2824 17.1968C31.4203 17.081 31.5 16.9095 31.5 16.7287C31.5 16.5478 31.4203 16.3763 31.2824 16.2605L26.1556 11.9538C25.9754 11.8024 25.7246 11.7698 25.5121 11.87C25.2997 11.9703 25.164 12.1854 25.164 12.4219V14.4855H18.4883C14.807 14.4855 11.8125 17.5041 11.8125 21.2149V29.5781C11.8125 29.9147 12.0832 30.1875 12.417 30.1875H15.6585Z" fill="white"/>
</svg>
