<svg width="42" height="42" viewBox="0 0 42 42" fill="none" xmlns="http://www.w3.org/2000/svg">
<path d="M11.687 4.56709C7.93873 5.06213 5.06213 7.93873 4.56709 11.687C4.22677 14.2639 3.9375 17.4873 3.9375 21C3.9375 24.5127 4.22677 27.7361 4.56709 30.313C5.06213 34.0613 7.93873 36.9379 11.687 37.4329C14.2639 37.7732 17.4873 38.0625 21 38.0625C24.5127 38.0625 27.7361 37.7732 30.313 37.4329C34.0613 36.9379 36.9379 34.0613 37.4329 30.313C37.7732 27.7361 38.0625 24.5127 38.0625 21C38.0625 17.4873 37.7732 14.2639 37.4329 11.687C36.9379 7.93873 34.0613 5.06213 30.313 4.56709C27.7361 4.22677 24.5127 3.9375 21 3.9375C17.4873 3.9375 14.2639 4.22677 11.687 4.56709Z" fill="#B1B5C4"/>
<path d="M26.3415 30.1875C26.0077 30.1875 25.737 29.9147 25.737 29.5781V21.2149C25.737 19.9784 24.7396 18.9718 23.5117 18.9718H16.836V21.0354C16.836 21.2718 16.7003 21.487 16.4879 21.5873C16.2754 21.6876 16.0246 21.655 15.8444 21.5036L10.7176 17.1968C10.5797 17.081 10.5 16.9095 10.5 16.7287C10.5 16.5478 10.5797 16.3763 10.7176 16.2605L15.8444 11.9538C16.0246 11.8024 16.2754 11.7698 16.4879 11.87C16.7003 11.9703 16.836 12.1854 16.836 12.4219V14.4855H23.5117C27.193 14.4855 30.1875 17.5041 30.1875 21.2149V29.5781C30.1875 29.9147 29.9168 30.1875 29.583 30.1875H26.3415Z" fill="white"/>
</svg>
