<svg width="98" height="98" viewBox="0 0 98 98" fill="none" xmlns="http://www.w3.org/2000/svg">
<path d="M1 48.9978C1 22.4889 22.4931 1 49 1C75.5112 1 97 22.4889 97 48.9978C97 75.5068 75.5112 96.9957 49 96.9957C22.491 96.9957 1 75.5068 1 48.9978ZM66.2092 30.858C66.2092 21.3563 58.506 13.6509 49 13.6509C39.4981 13.6509 31.7951 21.3565 31.7951 30.858C31.7951 40.3617 39.4982 48.0651 49 48.0651C58.5059 48.0651 66.2092 40.3619 66.2092 30.858ZM22.1483 71.3003C22.1483 73.61 23.1635 75.8099 24.9228 77.3106C31.405 82.8418 39.8119 86.185 48.9892 86.185C58.1682 86.185 66.577 82.8422 73.0572 77.309C74.8198 75.8076 75.8301 73.6113 75.8301 71.3003C75.8301 61.6672 68.06 53.9598 58.4315 53.9598H39.5728C29.9486 53.9598 22.1483 61.6651 22.1483 71.3003Z" fill="#777E91" stroke="#E6E8EC" stroke-width="2"/>
</svg>
