<svg width="156" height="148" viewBox="0 0 156 148" fill="none" xmlns="http://www.w3.org/2000/svg">
<path d="M152.759 112.984L97.6514 11.6829C88.7975 -3.22276 67.2143 -3.24256 58.3485 11.6829L3.24397 112.984C-5.80707 128.215 5.15101 147.502 22.8908 147.502H133.107C150.832 147.502 161.81 128.231 152.759 112.984ZM78 129.221C72.961 129.221 68.8593 125.12 68.8593 120.081C68.8593 115.042 72.961 110.94 78 110.94C83.0389 110.94 87.1406 115.042 87.1406 120.081C87.1406 125.12 83.0389 129.221 78 129.221ZM87.1406 92.6587C87.1406 97.6976 83.0389 101.799 78 101.799C72.961 101.799 68.8593 97.6976 68.8593 92.6587V46.9556C68.8593 41.9167 72.961 37.815 78 37.815C83.0389 37.815 87.1406 41.9167 87.1406 46.9556V92.6587Z" fill="#3772FF"/>
</svg>
